<?xml version="1.0" encoding="utf-8"?>
<!-- Generator: Adobe Illustrator 25.2.1, SVG Export Plug-In . SVG Version: 6.00 Build 0)  -->
<svg version="1.1" id="Layer_1" xmlns="http://www.w3.org/2000/svg" xmlns:xlink="http://www.w3.org/1999/xlink" x="0px" y="0px"
	 viewBox="0 0 2000 1000" style="enable-background:new 0 0 2000 1000;" xml:space="preserve">
<path d="M445.2,198.2l124.5,93.5c11,8.3,26.1,8.7,37.5,1l249.2-166.4c4-2.7,5-8,2.4-12c-1.6-2.4-4.3-3.8-7.2-3.8H534.4
	c-28.7,0-57.1,6.7-82.8,19.5L119.1,296.4c-11,5.5-17.9,16.7-17.9,29v346.4c0,12.2,6.9,23.4,17.8,28.9l371.8,188.8l366.4-164.9
	c4.4-2,6.3-7.1,4.3-11.4c-1.1-2.4-3.3-4.2-5.9-4.9l-462.3-111V224.1C393.3,197.4,423.8,182.1,445.2,198.2z"/>
<g>
	<path d="M942.6,204.9c0-46.6,26.9-75,70.1-75c37.2,0,59.8,20.4,64.9,55l-26.2,5c-4.3-23.3-16.3-36-39.2-36
		c-29.3,0-42.3,21.4-42.3,50.9c0,31.7,13,51.7,42,51.7c24.3,0,35.3-13,40.1-37l25.9,4.8c-4.8,34.8-27.9,56-66.1,56
		C967.8,280.3,942.6,251.5,942.6,204.9z"/>
	<path d="M1191.9,277.2v-59.6h-69.7v59.6h-27.4V133h27.4v60.1h69.7V133h27.4v144.1h-27.4V277.2z"/>
	<path d="M1238.8,277.2V133h27.4v144.1h-27.4V277.2z"/>
	<path d="M1283,204.9c0-46.6,26.9-75,70.1-75c37.2,0,59.8,20.4,64.9,55l-26.2,5c-4.3-23.3-16.3-36-39.2-36
		c-29.3,0-42.3,21.4-42.3,50.9c0,31.7,13,51.7,42,51.7c24.3,0,35.3-13,40.1-37l25.9,4.8c-4.8,34.8-27.9,56-66.1,56
		C1308.2,280.3,1283,251.5,1283,204.9z"/>
	<path d="M1515,240.4h-61.5l-12.5,36.8h-28.3l53.6-144.1h37l53.6,144.1h-29.3L1515,240.4z M1460.7,220h47.1l-6-17.8
		c-5-14.7-10.1-31-14.4-45.4h-6c-4.3,14.4-9.6,30.8-14.7,45.4L1460.7,220z"/>
	<path d="M1550.3,207c0-47.1,23.5-76.9,70.1-76.9c38.2,0,58.1,18.5,63.9,51.4l-25.5,5.3c-5.3-21.9-16.3-32.9-38.7-32.9
		c-30.8,0-42.5,20.4-42.5,53.1c0,30.8,12.7,49.7,43.5,49.7c31.5,0,39.6-16.3,39.6-32.9h-40.4v-22.3h66.1v75.7h-25.2V245h-2.4
		c-6.2,19.5-20.7,34.6-47.8,34.6C1575.3,279.6,1550.3,255.3,1550.3,207z"/>
	<path d="M1704.8,204.6c0-45.4,26.9-74.7,72.1-74.7c45.4,0,72.1,29.3,72.1,74.7c0,45.6-25.9,75.7-72.1,75.7
		C1730.5,280.3,1704.8,250.3,1704.8,204.6z M1821.6,204.6c0-30.3-13.9-50.7-44.7-50.7c-31,0-44.9,20.4-44.9,50.7
		c0,31.2,13.7,51.9,44.7,51.9C1807.9,256.5,1821.6,236.1,1821.6,204.6z"/>
	<path d="M942.1,403.6c0-47.1,23.5-76.9,70.1-76.9c38.2,0,58.1,18.5,63.9,51.4l-25.5,5.3c-5.3-21.9-16.3-32.9-38.7-32.9
		c-30.8,0-42.5,20.4-42.5,53.1c0,30.8,12.7,49.7,43.5,49.7c31.5,0,39.6-16.3,39.6-32.9h-40.4v-22.3h66.1v75.7H1053v-32.2h-2.4
		c-6.2,19.5-20.7,34.6-47.8,34.6C967.1,476.2,942.1,451.9,942.1,403.6z"/>
	<path d="M1148.7,419.7h-26.9v54.1h-27.4V329.6h60.5c36,0,53.1,15.1,53.1,43.7c0,22.6-11.5,37.5-31.7,43.5l40.1,54.3v2.6h-32
		L1148.7,419.7z M1121.8,352.7v44h30.8c18.7,0,28.6-7.2,28.6-22.6c0-14.7-7.4-21.4-28.1-21.4H1121.8z"/>
	<path d="M1327.7,437h-61.5l-12.5,36.8h-28.3l53.6-144.1h37l53.6,144.1h-29.3L1327.7,437z M1273.4,416.6h47.1l-6-17.8
		c-5-14.7-10.1-31-14.4-45.4h-6c-4.3,14.4-9.6,30.8-14.7,45.4L1273.4,416.6z"/>
	<path d="M1405.3,426.2v47.6h-27.4V329.6h57.9c35.8,0,53.3,16.3,53.3,48.5c0,27.4-18.5,48-52.4,48h-31.4V426.2z M1405.3,352.9v50.7
		h28.3c20.2,0,28.6-7.9,28.6-25.2c0-17.5-7.4-25.5-28.8-25.5H1405.3z"/>
	<path d="M1594.8,473.8v-59.6h-69.7v59.6h-27.4V329.6h27.4v60.1h69.7v-60.1h27.4v144.1L1594.8,473.8L1594.8,473.8z"/>
	<path d="M1636.8,473.8V329.6h27.4v144.1L1636.8,473.8L1636.8,473.8z"/>
	<path d="M1676.2,401.5c0-46.6,26.9-75,70.1-75c37.2,0,59.8,20.4,64.9,55l-26.2,5c-4.3-23.3-16.3-36-39.2-36
		c-29.3,0-42.3,21.4-42.3,50.9c0,31.7,13,51.7,42,51.7c24.3,0,35.3-13,40.1-37l25.9,4.8c-4.8,34.8-27.9,56-66.1,56
		C1701.5,476.9,1676.2,448.1,1676.2,401.5z"/>
	<path d="M950,526.2h58.6c49.7,0,72.6,25.2,72.6,70.9s-27.4,73.3-72.6,73.3H950V526.2z M977.4,549v98.7h29.1
		c33.9,0,47.3-18.3,47.3-50.7c0-33.9-14.2-48-48.8-48H977.4z"/>
	<path d="M1092.7,526.2h104V550h-76.6v35.6h69.4v23.5h-69.4v37.5h76.4v23.8h-103.8V526.2z"/>
	<path d="M1209.2,626.4l26.2-5.5c3.6,20.4,16.6,30.3,38.4,30.3c19.9,0,29.1-7.2,29.1-19c0-12.3-7.9-18.5-36.3-23.3
		c-39.4-6.5-51.9-21.6-51.9-44.2c0-25.7,18.3-41.6,55.3-41.6s52.1,17.3,56.9,42.5l-27.1,5.3c-3.8-17.1-11.1-25.9-31.2-25.9
		c-18.3,0-26.9,6.7-26.9,18.3c0,10.3,5.5,17.5,35.8,23.1c43,7.9,52.9,23.5,52.9,44.2c0,26.4-16.8,43-57.4,43
		C1229.4,673.2,1212.8,653.1,1209.2,626.4z"/>
	<path d="M1347.8,670.4V526.2h27.4v144.1L1347.8,670.4L1347.8,670.4z"/>
	<path d="M1391.6,600.2c0-47.1,23.5-76.9,70.1-76.9c38.2,0,58.1,18.5,63.9,51.4l-25.5,5.3c-5.3-21.9-16.3-32.9-38.7-32.9
		c-30.8,0-42.5,20.4-42.5,53.1c0,30.8,12.7,49.7,43.5,49.7c31.5,0,39.6-16.3,39.6-32.9h-40.4v-22.3h66.1v75.7h-25.2v-32.2h-2.4
		c-6.2,19.5-20.7,34.6-47.8,34.6C1416.5,672.8,1391.6,648.5,1391.6,600.2z"/>
	<path d="M1596.5,604.8c-7.9-14.7-18-37.2-25.2-54.5l-4.3,0.5c1.4,20.9,2.6,51.2,2.6,70.1v49.5h-25.7V526.2h39.2l31.7,56.5
		c10.6,18.7,21.4,43,27.9,59.6l4.3-0.2c-1.4-20.4-2.6-46.8-2.6-65.8v-50h25.2v144.1h-36L1596.5,604.8z"/>
	<path d="M942.6,794.6c0-46.6,26.9-75,70.1-75c37.2,0,59.8,20.4,64.9,55l-26.2,5c-4.3-23.3-16.3-36-39.2-36
		c-29.3,0-42.3,21.4-42.3,50.9c0,31.7,13,51.7,42,51.7c24.3,0,35.3-13,40.1-37l25.9,4.8c-4.8,34.8-27.9,56-66.1,56
		C967.8,870.1,942.6,841.2,942.6,794.6z"/>
	<path d="M1122.3,842.4h65.1V867h-92.5V722.8h27.4V842.4z"/>
	<path d="M1289.7,810v-87.2h27.1v89.1c0,37.5-21.1,57.9-60.3,57.9c-39.6,0-62.2-20.2-62.2-57.9v-89.1h27.4v86.5
		c0,21.6,8.2,36.3,34.8,36.3C1282,845.6,1289.7,831.9,1289.7,810z"/>
	<path d="M1331.3,722.8h60.5c34.6,0,50.2,12.3,50.2,36.8c0,18.7-10.8,29.3-29.1,33.6v2.4c25,2.6,35.6,11.8,35.6,32.2
		c0,23.3-14.7,39.2-51.2,39.2h-66.1L1331.3,722.8L1331.3,722.8z M1358.6,744.2v41.6h32.4c15.1,0,24.7-5.8,24.7-21.4
		c0-13.7-6.7-20.2-23.5-20.2L1358.6,744.2L1358.6,744.2z M1358.6,805v41.3h38c17.1,0,25-8.4,25-20.7c0-13.2-6.7-20.7-26.4-20.7
		h-36.6V805z"/>
</g>
</svg>
