<?xml version="1.0" encoding="utf-8"?>
<!-- Generator: Adobe Illustrator 25.2.1, SVG Export Plug-In . SVG Version: 6.00 Build 0)  -->
<svg version="1.1" id="Layer_1" xmlns="http://www.w3.org/2000/svg" xmlns:xlink="http://www.w3.org/1999/xlink" x="0px" y="0px"
	 viewBox="0 0 845 196" style="enable-background:new 0 0 845 196;" xml:space="preserve">
<style type="text/css">
	.st0{fill:#41B6E6;}
	.st1{fill:#E4002B;}
</style>
<g>
	<rect x="16" y="43.2" class="st0" width="147.8" height="110.9"/>
	<polygon class="st1" points="263.7,72.4 248.8,15.1 234.2,72.4 177.1,56.6 219.3,98 177.1,139.4 234.2,123.6 248.8,180.9 
		263.7,123.6 320.7,139.4 278.5,98 320.7,56.6 	"/>
	<path d="M369.3,113.1c0,2.8,0.1,6.2,0.1,10.1c0,3.9,0,7.3-0.1,10.2c-0.1,5-3.1,7.6-8.8,7.6c-5.5,0-8.4-2.5-8.5-7.6
		c-0.2-7.1-0.4-14.7-0.5-22.6c-0.1-8-0.1-16,0-23.9c0.1-8,0.2-15.5,0.5-22.7c0.1-4.9,3-7.4,8.5-7.4c5.4,0,8.1,2.5,8.3,7.4
		c0.1,2.8,0.1,6.2,0.1,10c0,3.9-0.1,7.2-0.2,10h17.9c0.1-2.4,0.2-5.1,0.2-8.4c0-3.2,0-6-0.1-8.4c-0.2-9-2.4-15.5-6.5-19.4
		c-4.1-3.9-10.6-5.9-19.7-5.9c-9.2,0-15.9,2.2-20,6.7c-4.1,4.5-6.3,10.7-6.4,18.5c-0.1,6.1-0.2,12.9-0.2,20.3c0,7.4,0,14.9,0,22.3
		c0,7.4,0.1,14.2,0.2,20.2c0.2,9.1,2.3,15.6,6.3,19.6c4,3.9,10.7,5.9,20.1,5.9c9.2,0,16-2,20.1-5.9c4.2-3.9,6.4-10.4,6.6-19.6
		c0.1-2.7,0.1-5.5,0.1-8.6s0-5.9-0.1-8.5H369.3z"/>
	<polygon points="431,90.1 415.7,90.1 415.7,43.3 397.7,43.3 397.7,154.3 415.7,154.3 415.7,105.9 431,105.9 431,154.3 448.9,154.3 
		448.9,43.3 431,43.3 	"/>
	<rect x="460.8" y="43.3" width="18" height="111"/>
	<rect x="521.9" y="26.4" width="6.6" height="143.2"/>
	<path d="M684.2,129.8l-67.4-16.2V59.2c0-3.9,4.4-6.1,7.6-3.8L642.5,69c1.6,1.2,3.8,1.3,5.5,0.1l36.3-24.3c0.6-0.4,0.7-1.2,0.3-1.7
		c-0.2-0.3-0.6-0.6-1-0.6h-46.2c-4.2,0-8.3,1-12.1,2.8l-48.5,24.3c-1.6,0.8-2.6,2.4-2.6,4.2v50.5c0,1.8,1,3.4,2.6,4.2l54.2,27.5
		l53.4-24c0.6-0.3,0.9-1,0.6-1.7C684.9,130.1,684.5,129.9,684.2,129.8z"/>
	<path d="M706.9,67.4c5.6,0,8.9-3.1,9.6-8.2l-3.8-0.7c-0.7,3.5-2.3,5.4-5.8,5.4c-4.2,0-6.1-2.9-6.1-7.5c0-4.3,1.9-7.4,6.2-7.4
		c3.3,0,5.1,1.9,5.7,5.2l3.8-0.7c-0.7-5-4-8-9.5-8c-6.3,0-10.2,4.1-10.2,10.9S700.5,67.4,706.9,67.4z"/>
	<polygon points="723,58.2 733.2,58.2 733.2,66.9 737.2,66.9 737.2,45.9 733.2,45.9 733.2,54.7 723,54.7 723,45.9 719,45.9 
		719,66.9 723,66.9 	"/>
	<rect x="740" y="45.9" width="4" height="21"/>
	<path d="M756.6,67.4c5.6,0,8.9-3.1,9.6-8.2l-3.8-0.7c-0.7,3.5-2.3,5.4-5.8,5.4c-4.2,0-6.1-2.9-6.1-7.5c0-4.3,1.9-7.4,6.2-7.4
		c3.3,0,5.1,1.9,5.7,5.2l3.8-0.7c-0.7-5-4-8-9.5-8c-6.3,0-10.2,4.1-10.2,10.9S750.1,67.4,756.6,67.4z"/>
	<path d="M769.5,66.9l1.8-5.4h9l1.8,5.4h4.3l-7.8-21h-5.4l-7.8,21H769.5z M773.2,56c0.7-2.1,1.5-4.5,2.1-6.6h0.9
		c0.6,2.1,1.4,4.5,2.1,6.6l0.9,2.6h-6.9L773.2,56z"/>
	<path d="M794.3,67.3c4,0,6.1-2.2,7-5h0.3v4.7h3.7v-11h-9.6v3.3h5.9c0,2.4-1.2,4.8-5.8,4.8c-4.5,0-6.3-2.8-6.3-7.2
		c0-4.8,1.7-7.7,6.2-7.7c3.3,0,4.9,1.6,5.6,4.8L805,53c-0.8-4.8-3.7-7.5-9.3-7.5c-6.8,0-10.2,4.3-10.2,11.2
		C785.4,63.7,789.1,67.3,794.3,67.3z"/>
	<path d="M818.5,45.4c-6.6,0-10.5,4.3-10.5,10.9c0,6.7,3.7,11,10.5,11c6.7,0,10.5-4.4,10.5-11C829,49.7,825.1,45.4,818.5,45.4z
		 M818.4,63.9c-4.5,0-6.5-3-6.5-7.6c0-4.4,2-7.4,6.5-7.4c4.5,0,6.5,3,6.5,7.4C825,60.9,823,63.9,818.4,63.9z"/>
	<path d="M705.6,95.9c4,0,6.1-2.2,7-5h0.3v4.7h3.7v-11H707v3.3h5.9c0,2.4-1.2,4.8-5.8,4.8c-4.5,0-6.3-2.8-6.3-7.2
		c0-4.8,1.7-7.7,6.2-7.7c3.3,0,4.9,1.6,5.6,4.8l3.7-0.8c-0.8-4.8-3.7-7.5-9.3-7.5c-6.8,0-10.2,4.3-10.2,11.2
		C696.8,92.4,700.4,95.9,705.6,95.9z"/>
	<path d="M723,87.7h3.9l5.2,7.9h4.7v-0.4l-5.8-7.9c2.9-0.9,4.6-3,4.6-6.3c0-4.2-2.5-6.4-7.7-6.4H719v21h4V87.7z M723,77.9h4.6
		c3,0,4.1,1,4.1,3.1c0,2.2-1.4,3.3-4.2,3.3H723V77.9z"/>
	<path d="M744,90.2h9l1.8,5.4h4.3l-7.8-21h-5.4l-7.8,21h4.1L744,90.2z M745.9,84.6c0.7-2.1,1.5-4.5,2.1-6.6h0.9
		c0.6,2.1,1.4,4.5,2.1,6.6l0.9,2.6h-6.9L745.9,84.6z"/>
	<path d="M760.3,74.5v21h4v-6.9v0h4.6c4.9,0,7.6-3,7.6-7c0-4.7-2.6-7.1-7.8-7.1H760.3z M772.6,81.7c0,2.5-1.2,3.7-4.2,3.7h-4.1v-7.4
		h4.1C771.5,77.9,772.6,79.1,772.6,81.7z"/>
	<polygon points="795.9,95.6 795.9,74.5 791.9,74.5 791.9,83.3 781.8,83.3 781.8,74.5 777.8,74.5 777.8,95.6 781.8,95.6 781.8,86.9 
		791.9,86.9 791.9,95.6 	"/>
	<rect x="798" y="74.5" width="4" height="21"/>
	<path d="M813.9,92.6c-4.2,0-6.1-2.9-6.1-7.5c0-4.3,1.9-7.4,6.2-7.4c3.3,0,5.1,1.9,5.7,5.2l3.8-0.7c-0.7-5-4-8-9.5-8
		c-6.3,0-10.2,4.1-10.2,10.9s3.7,11,10.1,11c5.6,0,8.9-3.1,9.6-8.2l-3.8-0.7C819,90.7,817.4,92.6,813.9,92.6z"/>
	<path d="M706.5,103.2h-8.5v21h8.5c6.6,0,10.6-4,10.6-10.7C717.1,106.9,713.7,103.2,706.5,103.2z M706.2,120.9h-4.2v-14.4h4
		c5,0,7.1,2.1,7.1,7C713.1,118.3,711.1,120.9,706.2,120.9z"/>
	<polygon points="733.9,120.8 722.7,120.8 722.7,115.3 732.8,115.3 732.8,111.9 722.7,111.9 722.7,106.7 733.9,106.7 733.9,103.2 
		718.7,103.2 718.7,124.2 733.9,124.2 	"/>
	<path d="M745.7,112c-4.4-0.8-5.2-1.9-5.2-3.4c0-1.7,1.3-2.7,3.9-2.7c2.9,0,4,1.3,4.5,3.8l4-0.8c-0.7-3.7-2.9-6.2-8.3-6.2
		s-8.1,2.3-8.1,6.1c0,3.3,1.8,5.5,7.6,6.4c4.1,0.7,5.3,1.6,5.3,3.4c0,1.7-1.3,2.8-4.2,2.8c-3.2,0-5.1-1.4-5.6-4.4l-3.8,0.8
		c0.5,3.9,2.9,6.8,9.3,6.9c5.9,0,8.4-2.4,8.4-6.3C753.4,115.4,751.9,113.1,745.7,112z"/>
	<rect x="755.9" y="103.2" width="4" height="21"/>
	<path d="M772.5,116.4h5.9c0,2.4-1.2,4.8-5.8,4.8c-4.5,0-6.3-2.8-6.3-7.2c0-4.8,1.7-7.7,6.2-7.7c3.3,0,4.9,1.6,5.6,4.8l3.7-0.8
		c-0.8-4.8-3.7-7.5-9.3-7.5c-6.8,0-10.2,4.3-10.2,11.2c0,7,3.6,10.6,8.8,10.6c4,0,6.1-2.2,7-5h0.3v4.7h3.7v-11h-9.6V116.4z"/>
	<path d="M799.2,110.5c0,2.8,0.2,6.6,0.4,9.6l-0.6,0c-0.9-2.4-2.5-6-4.1-8.7l-4.6-8.2h-5.7v21h3.7V117c0-2.8-0.2-7.2-0.4-10.2
		l0.6-0.1c1,2.5,2.5,5.8,3.7,7.9l5.4,9.6h5.2v-21h-3.7V110.5z"/>
	<path d="M707,149.9c-4.2,0-6.1-2.9-6.1-7.5c0-4.3,1.9-7.4,6.2-7.4c3.3,0,5.1,1.9,5.7,5.2l3.8-0.7c-0.7-5-4-8-9.5-8
		c-6.3,0-10.2,4.1-10.2,10.9s3.7,11,10.1,11c5.6,0,8.9-3.1,9.6-8.2l-3.8-0.7C712.1,148,710.5,149.9,707,149.9z"/>
	<polygon points="723,131.9 719.1,131.9 719.1,152.9 732.5,152.9 732.5,149.3 723,149.3 	"/>
	<path d="M747.4,144.6c0,3.2-1.1,5.2-4.8,5.2c-3.9,0-5.1-2.1-5.1-5.3v-12.6h-4v13c0,5.5,3.3,8.4,9.1,8.4c5.7,0,8.8-3,8.8-8.4v-13h-4
		V144.6z"/>
	<path d="M765.4,142.5v-0.3c2.7-0.6,4.2-2.2,4.2-4.9c0-3.6-2.3-5.4-7.3-5.4h-8.8h0v21h9.6c5.3,0,7.5-2.3,7.5-5.7
		C770.6,144.2,769.1,142.9,765.4,142.5z M757.5,135L757.5,135l4.9,0c2.4,0,3.4,0.9,3.4,2.9c0,2.3-1.4,3.1-3.6,3.1h-4.7V135z
		 M763,149.9h-5.5v-6v0h5.3c2.9,0,3.8,1.1,3.8,3C766.7,148.6,765.5,149.9,763,149.9z"/>
</g>
</svg>
